<svg width="241" height="48" viewBox="0 0 241 48" fill="none" xmlns="http://www.w3.org/2000/svg">
<path d="M56.0252 35.5V10.825H67.4002C70.1069 10.825 72.1952 11.3967 73.6653 12.54C75.1353 13.6833 75.8703 15.2467 75.8703 17.23C75.8703 18.7 75.4269 19.9483 74.5402 20.975C73.6769 22.0017 72.4869 22.69 70.9702 23.04V22.48C72.7436 22.7833 74.1086 23.46 75.0653 24.51C76.0453 25.5367 76.5353 26.8783 76.5353 28.535C76.5353 30.7283 75.7536 32.4433 74.1902 33.68C72.6503 34.8933 70.5153 35.5 67.7852 35.5H56.0252ZM61.2402 31.44H67.1203C68.4736 31.44 69.5119 31.1833 70.2352 30.67C70.9586 30.1567 71.3202 29.34 71.3202 28.22C71.3202 27.0767 70.9586 26.26 70.2352 25.77C69.5119 25.2567 68.4736 25 67.1203 25H61.2402V31.44ZM61.2402 20.975H66.4202C67.8436 20.975 68.8936 20.7183 69.5702 20.205C70.2469 19.6917 70.5853 18.9217 70.5853 17.895C70.5853 16.8917 70.2469 16.1333 69.5702 15.62C68.8936 15.1067 67.8436 14.85 66.4202 14.85H61.2402V20.975ZM80.0454 35.5V9.74H85.3304V35.5H80.0454ZM96.0899 35.885C93.8732 35.885 92.2282 35.2783 91.1549 34.065C90.0815 32.8283 89.5449 30.9617 89.5449 28.465V17.755H94.8299V28.465C94.8299 29.585 95.0515 30.4133 95.4949 30.95C95.9615 31.4867 96.6732 31.755 97.6299 31.755C98.6799 31.755 99.5432 31.3933 100.22 30.67C100.92 29.9233 101.27 28.9317 101.27 27.695V17.755H106.555V35.5H101.41V32.105H101.9C101.363 33.295 100.593 34.2283 99.5899 34.905C98.6099 35.5583 97.4432 35.885 96.0899 35.885ZM119.835 35.885C116.755 35.885 114.351 35.0567 112.625 33.4C110.898 31.7433 110.035 29.4917 110.035 26.645C110.035 24.8017 110.396 23.1917 111.12 21.815C111.866 20.4383 112.893 19.365 114.2 18.595C115.53 17.8017 117.081 17.405 118.855 17.405C120.605 17.405 122.063 17.7783 123.23 18.525C124.42 19.2717 125.306 20.3217 125.89 21.675C126.496 23.005 126.8 24.5567 126.8 26.33V27.555H114.375V24.93H122.95L122.355 25.42C122.355 23.95 122.051 22.8417 121.445 22.095C120.861 21.325 120.01 20.94 118.89 20.94C117.653 20.94 116.696 21.395 116.02 22.305C115.366 23.215 115.04 24.5217 115.04 26.225V26.785C115.04 28.5117 115.46 29.795 116.3 30.635C117.163 31.475 118.4 31.895 120.01 31.895C120.966 31.895 121.865 31.7783 122.705 31.545C123.568 31.2883 124.385 30.8917 125.155 30.355L126.625 33.855C125.738 34.5083 124.711 35.01 123.545 35.36C122.401 35.71 121.165 35.885 119.835 35.885ZM142.438 35.885C139.801 35.885 137.538 35.36 135.648 34.31C133.758 33.26 132.299 31.79 131.273 29.9C130.269 27.9867 129.768 25.735 129.768 23.145C129.768 20.555 130.269 18.315 131.273 16.425C132.299 14.535 133.758 13.065 135.648 12.015C137.538 10.965 139.801 10.44 142.438 10.44C144.141 10.44 145.693 10.685 147.093 11.175C148.493 11.6417 149.683 12.33 150.663 13.24L148.948 17.545C147.874 16.705 146.848 16.11 145.868 15.76C144.911 15.41 143.826 15.235 142.613 15.235C140.303 15.235 138.529 15.9233 137.293 17.3C136.079 18.6533 135.473 20.6017 135.473 23.145C135.473 25.6883 136.079 27.6483 137.293 29.025C138.529 30.4017 140.303 31.09 142.613 31.09C143.826 31.09 144.911 30.915 145.868 30.565C146.848 30.215 147.874 29.62 148.948 28.78L150.663 33.085C149.683 33.9717 148.493 34.66 147.093 35.15C145.693 35.64 144.141 35.885 142.438 35.885ZM161.282 35.885C159.392 35.885 157.747 35.5117 156.347 34.765C154.971 33.995 153.897 32.9217 153.127 31.545C152.381 30.1683 152.007 28.5233 152.007 26.61C152.007 24.72 152.381 23.0867 153.127 21.71C153.897 20.3333 154.971 19.2717 156.347 18.525C157.747 17.7783 159.392 17.405 161.282 17.405C163.172 17.405 164.817 17.7783 166.217 18.525C167.617 19.2717 168.691 20.3333 169.437 21.71C170.207 23.0867 170.592 24.72 170.592 26.61C170.592 28.5233 170.207 30.1683 169.437 31.545C168.691 32.9217 167.617 33.995 166.217 34.765C164.817 35.5117 163.172 35.885 161.282 35.885ZM161.282 31.895C162.496 31.895 163.452 31.4633 164.152 30.6C164.876 29.7367 165.237 28.4067 165.237 26.61C165.237 24.8133 164.876 23.495 164.152 22.655C163.452 21.815 162.496 21.395 161.282 21.395C160.069 21.395 159.101 21.815 158.377 22.655C157.677 23.495 157.327 24.8133 157.327 26.61C157.327 28.4067 157.677 29.7367 158.377 30.6C159.101 31.4633 160.069 31.895 161.282 31.895ZM200.109 35.885C198.569 35.885 197.216 35.5117 196.049 34.765C194.883 34.0183 193.973 32.9567 193.319 31.58C192.666 30.2033 192.339 28.5467 192.339 26.61C192.339 24.6967 192.666 23.0517 193.319 21.675C193.973 20.2983 194.883 19.2483 196.049 18.525C197.216 17.7783 198.569 17.405 200.109 17.405C201.533 17.405 202.804 17.755 203.924 18.455C205.068 19.1317 205.814 20.0533 206.164 21.22H205.779L206.199 17.755H211.274C211.204 18.525 211.134 19.3067 211.064 20.1C211.018 20.87 210.994 21.6283 210.994 22.375V35.5H205.744L205.709 32.175H206.129C205.756 33.295 205.009 34.1933 203.889 34.87C202.769 35.5467 201.509 35.885 200.109 35.885ZM201.719 31.895C202.933 31.895 203.913 31.4633 204.659 30.6C205.406 29.7367 205.779 28.4067 205.779 26.61C205.779 24.8133 205.406 23.495 204.659 22.655C203.913 21.815 202.933 21.395 201.719 21.395C200.506 21.395 199.526 21.815 198.779 22.655C198.033 23.495 197.659 24.8133 197.659 26.61C197.659 28.4067 198.021 29.7367 198.744 30.6C199.491 31.4633 200.483 31.895 201.719 31.895ZM215.294 35.5V22.445C215.294 21.675 215.27 20.8933 215.224 20.1C215.2 19.3067 215.142 18.525 215.049 17.755H220.124L220.719 22.935H219.914C220.147 21.675 220.52 20.6367 221.034 19.82C221.57 19.0033 222.224 18.3967 222.994 18C223.787 17.6033 224.685 17.405 225.689 17.405C226.132 17.405 226.482 17.4283 226.739 17.475C226.995 17.4983 227.252 17.5567 227.509 17.65L227.474 22.305C226.984 22.095 226.564 21.9667 226.214 21.92C225.887 21.85 225.467 21.815 224.954 21.815C223.974 21.815 223.157 22.0017 222.504 22.375C221.874 22.7483 221.395 23.2967 221.069 24.02C220.765 24.7433 220.614 25.6183 220.614 26.645V35.5H215.294Z" fill="white"/>
<path d="M174.005 35.5V9.74H179.29V35.5H174.005ZM183.61 35.5V9.74H188.895V35.5H183.61Z" fill="#FFB342"/>
<path d="M23.4014 7.92933L18.5786 5.11621L13.7559 7.92933" stroke="white" stroke-width="3" stroke-linecap="round" stroke-linejoin="round"/>
<path d="M18.5787 5.11621V12.149" stroke="white" stroke-width="3" stroke-miterlimit="10" stroke-linecap="round"/>
<path d="M13.7559 41.6865L18.5786 44.4996L23.4014 41.6865" stroke="white" stroke-width="3" stroke-linecap="round" stroke-linejoin="round"/>
<path d="M18.5787 44.5001V37.4673" stroke="white" stroke-width="3" stroke-miterlimit="10" stroke-linecap="round"/>
<path d="M35.4574 20.5451V14.9619L30.785 12.1919" stroke="white" stroke-width="3" stroke-linecap="round" stroke-linejoin="round"/>
<path d="M35.4574 14.9624L29.5419 18.4788" stroke="white" stroke-width="3" stroke-miterlimit="10" stroke-linecap="round"/>
<path d="M1.69989 29.0713V34.6545L6.37231 37.4245" stroke="white" stroke-width="3" stroke-linecap="round" stroke-linejoin="round"/>
<path d="M1.70001 34.6541L7.61548 31.1377" stroke="white" stroke-width="3" stroke-miterlimit="10" stroke-linecap="round"/>
<path d="M30.785 37.4676L35.4574 34.6545V29.0713" stroke="white" stroke-width="3" stroke-linecap="round" stroke-linejoin="round"/>
<path d="M35.4574 34.6541L29.5991 31.1377" stroke="white" stroke-width="3" stroke-miterlimit="10" stroke-linecap="round"/>
<path d="M6.37231 12.1919L1.69989 14.9619V20.5451" stroke="white" stroke-width="3" stroke-linecap="round" stroke-linejoin="round"/>
<path d="M1.69989 14.9624L7.61536 18.4788M18.5786 30.4346V24.8083M18.5786 24.8083L13.7559 21.9952M18.5786 24.8083L23.4014 21.9952" stroke="white" stroke-width="3" stroke-miterlimit="10" stroke-linecap="round"/>
</svg>
