<svg width="630" height="693" viewBox="0 0 630 693" fill="none" xmlns="http://www.w3.org/2000/svg">
<g filter="url(#filter0_b_248_439)">
<rect width="630" height="693" fill="#1C2752" fill-opacity="0.7"/>
<rect x="0.5" y="0.5" width="629" height="692" stroke="black"/>
<rect x="115" y="182" width="96" height="65" fill="#FFB342"/>
<path d="M140.145 224.275C138.911 224.275 137.72 224.1 136.57 223.75C135.436 223.4 134.52 222.917 133.82 222.3L135.045 219.4C135.795 219.95 136.586 220.367 137.42 220.65C138.253 220.917 139.111 221.05 139.995 221.05C141.028 221.05 141.803 220.858 142.32 220.475C142.836 220.092 143.095 219.525 143.095 218.775C143.095 218.075 142.845 217.55 142.345 217.2C141.861 216.833 141.136 216.65 140.17 216.65H137.22V213.575H139.82C140.653 213.575 141.32 213.383 141.82 213C142.32 212.6 142.57 212.058 142.57 211.375C142.57 210.708 142.336 210.2 141.87 209.85C141.403 209.5 140.728 209.325 139.845 209.325C138.161 209.325 136.661 209.883 135.345 211L134.095 208.15C134.845 207.5 135.753 207 136.82 206.65C137.903 206.283 139.036 206.1 140.22 206.1C142.12 206.1 143.603 206.525 144.67 207.375C145.753 208.208 146.295 209.375 146.295 210.875C146.295 211.908 146.003 212.8 145.42 213.55C144.836 214.283 144.036 214.775 143.02 215.025V214.7C144.22 214.9 145.153 215.392 145.82 216.175C146.486 216.958 146.82 217.942 146.82 219.125C146.82 220.725 146.22 221.983 145.02 222.9C143.836 223.817 142.211 224.275 140.145 224.275ZM154.085 224.275C153.118 224.275 152.168 224.108 151.235 223.775C150.301 223.425 149.485 222.95 148.785 222.35L150.035 219.475C150.651 219.992 151.301 220.383 151.985 220.65C152.685 220.917 153.393 221.05 154.11 221.05C155.493 221.05 156.543 220.6 157.26 219.7C157.976 218.783 158.335 217.442 158.335 215.675V214.05H158.66C158.543 214.833 158.268 215.508 157.835 216.075C157.401 216.642 156.86 217.075 156.21 217.375C155.576 217.675 154.868 217.825 154.085 217.825C153.085 217.825 152.185 217.583 151.385 217.1C150.601 216.6 149.976 215.917 149.51 215.05C149.06 214.183 148.835 213.208 148.835 212.125C148.835 210.958 149.093 209.925 149.61 209.025C150.126 208.108 150.835 207.392 151.735 206.875C152.635 206.358 153.676 206.1 154.86 206.1C157.143 206.1 158.901 206.875 160.135 208.425C161.368 209.958 161.985 212.133 161.985 214.95C161.985 216.917 161.668 218.6 161.035 220C160.418 221.383 159.518 222.442 158.335 223.175C157.151 223.908 155.735 224.275 154.085 224.275ZM155.085 214.8C155.601 214.8 156.06 214.683 156.46 214.45C156.86 214.217 157.168 213.883 157.385 213.45C157.618 213.017 157.735 212.525 157.735 211.975C157.735 211.392 157.618 210.892 157.385 210.475C157.168 210.042 156.86 209.708 156.46 209.475C156.06 209.225 155.601 209.1 155.085 209.1C154.551 209.1 154.085 209.225 153.685 209.475C153.285 209.708 152.976 210.042 152.76 210.475C152.543 210.892 152.435 211.392 152.435 211.975C152.435 212.525 152.543 213.017 152.76 213.45C152.976 213.883 153.285 214.217 153.685 214.45C154.085 214.683 154.551 214.8 155.085 214.8ZM170.5 224.275C169.717 224.275 168.942 224.192 168.175 224.025C167.408 223.858 166.692 223.633 166.025 223.35C165.358 223.05 164.8 222.7 164.35 222.3L165.575 219.4C166.325 219.933 167.108 220.342 167.925 220.625C168.742 220.908 169.575 221.05 170.425 221.05C171.392 221.05 172.142 220.825 172.675 220.375C173.225 219.908 173.5 219.275 173.5 218.475C173.5 217.675 173.242 217.033 172.725 216.55C172.208 216.067 171.5 215.825 170.6 215.825C169.967 215.825 169.375 215.942 168.825 216.175C168.292 216.408 167.808 216.767 167.375 217.25H164.875V206.375H176.125V209.55H168.55V214.325H167.65C168.067 213.808 168.617 213.408 169.3 213.125C169.983 212.842 170.75 212.7 171.6 212.7C172.733 212.7 173.717 212.942 174.55 213.425C175.4 213.892 176.058 214.55 176.525 215.4C176.992 216.233 177.225 217.217 177.225 218.35C177.225 219.517 176.95 220.55 176.4 221.45C175.867 222.333 175.092 223.025 174.075 223.525C173.075 224.025 171.883 224.275 170.5 224.275ZM186.14 224.275C183.874 224.275 182.124 223.5 180.89 221.95C179.657 220.4 179.04 218.225 179.04 215.425C179.04 213.458 179.357 211.783 179.99 210.4C180.624 209 181.524 207.933 182.69 207.2C183.874 206.467 185.29 206.1 186.94 206.1C187.89 206.1 188.832 206.267 189.765 206.6C190.715 206.917 191.54 207.383 192.24 208L190.99 210.875C190.374 210.358 189.715 209.975 189.015 209.725C188.315 209.458 187.607 209.325 186.89 209.325C185.524 209.325 184.482 209.775 183.765 210.675C183.049 211.575 182.69 212.917 182.69 214.7V216.325H182.365C182.499 215.525 182.774 214.85 183.19 214.3C183.607 213.733 184.14 213.3 184.79 213C185.44 212.7 186.157 212.55 186.94 212.55C187.94 212.55 188.832 212.8 189.615 213.3C190.415 213.783 191.04 214.458 191.49 215.325C191.94 216.175 192.165 217.15 192.165 218.25C192.165 219.417 191.907 220.458 191.39 221.375C190.874 222.275 190.165 222.983 189.265 223.5C188.382 224.017 187.34 224.275 186.14 224.275ZM185.94 221.25C186.474 221.25 186.94 221.133 187.34 220.9C187.74 220.667 188.049 220.333 188.265 219.9C188.482 219.467 188.59 218.967 188.59 218.4C188.59 217.833 188.482 217.342 188.265 216.925C188.049 216.492 187.74 216.158 187.34 215.925C186.94 215.675 186.474 215.55 185.94 215.55C185.407 215.55 184.94 215.675 184.54 215.925C184.14 216.158 183.824 216.492 183.59 216.925C183.374 217.342 183.265 217.833 183.265 218.4C183.265 218.967 183.374 219.467 183.59 219.9C183.824 220.333 184.14 220.667 184.54 220.9C184.94 221.133 185.407 221.25 185.94 221.25Z" fill="#1C2752"/>
<rect x="211.5" y="182.5" width="303" height="64" stroke="white"/>
<path d="M234.95 224V206.375H242.775C244.708 206.375 246.183 206.842 247.2 207.775C248.217 208.708 248.725 209.992 248.725 211.625C248.725 213.242 248.217 214.525 247.2 215.475C246.183 216.425 244.708 216.9 242.775 216.9H238.175V224H234.95ZM238.175 214.35H242.4C243.467 214.35 244.267 214.117 244.8 213.65C245.333 213.167 245.6 212.492 245.6 211.625C245.6 210.758 245.333 210.092 244.8 209.625C244.267 209.142 243.467 208.9 242.4 208.9H238.175V214.35ZM251.081 224V214.6C251.081 214.067 251.065 213.525 251.031 212.975C251.015 212.425 250.973 211.892 250.906 211.375H253.931L254.281 214.825H253.781C253.948 213.992 254.223 213.3 254.606 212.75C255.006 212.2 255.49 211.792 256.056 211.525C256.623 211.258 257.24 211.125 257.906 211.125C258.206 211.125 258.448 211.142 258.631 211.175C258.815 211.192 258.998 211.233 259.181 211.3L259.156 214.05C258.84 213.917 258.565 213.833 258.331 213.8C258.115 213.767 257.84 213.75 257.506 213.75C256.79 213.75 256.181 213.9 255.681 214.2C255.198 214.5 254.831 214.917 254.581 215.45C254.348 215.983 254.231 216.592 254.231 217.275V224H251.081ZM266.425 224.25C265.125 224.25 264 223.983 263.05 223.45C262.1 222.917 261.359 222.158 260.825 221.175C260.309 220.192 260.05 219.025 260.05 217.675C260.05 216.325 260.309 215.167 260.825 214.2C261.359 213.217 262.1 212.458 263.05 211.925C264 211.392 265.125 211.125 266.425 211.125C267.725 211.125 268.85 211.392 269.8 211.925C270.767 212.458 271.509 213.217 272.025 214.2C272.559 215.167 272.825 216.325 272.825 217.675C272.825 219.025 272.559 220.192 272.025 221.175C271.509 222.158 270.767 222.917 269.8 223.45C268.85 223.983 267.725 224.25 266.425 224.25ZM266.425 221.85C267.409 221.85 268.192 221.508 268.775 220.825C269.359 220.125 269.65 219.075 269.65 217.675C269.65 216.275 269.359 215.233 268.775 214.55C268.192 213.867 267.409 213.525 266.425 213.525C265.442 213.525 264.659 213.867 264.075 214.55C263.492 215.233 263.2 216.275 263.2 217.675C263.2 219.075 263.492 220.125 264.075 220.825C264.659 221.508 265.442 221.85 266.425 221.85ZM274.27 229.55C273.954 229.55 273.612 229.525 273.245 229.475C272.862 229.425 272.529 229.342 272.245 229.225V226.75C272.462 226.817 272.695 226.875 272.945 226.925C273.195 226.975 273.437 227 273.67 227C274.27 227 274.737 226.817 275.07 226.45C275.42 226.083 275.595 225.467 275.595 224.6V211.375H278.72V224.775C278.72 226.342 278.362 227.525 277.645 228.325C276.929 229.142 275.804 229.55 274.27 229.55ZM275.395 209V205.95H278.87V209H275.395ZM288.139 224.25C286.022 224.25 284.364 223.667 283.164 222.5C281.964 221.333 281.364 219.733 281.364 217.7C281.364 216.383 281.622 215.233 282.139 214.25C282.656 213.267 283.372 212.5 284.289 211.95C285.222 211.4 286.306 211.125 287.539 211.125C288.756 211.125 289.772 211.383 290.589 211.9C291.406 212.417 292.022 213.142 292.439 214.075C292.872 215.008 293.089 216.1 293.089 217.35V218.175H283.889V216.525H290.864L290.439 216.875C290.439 215.708 290.189 214.817 289.689 214.2C289.206 213.583 288.497 213.275 287.564 213.275C286.531 213.275 285.731 213.642 285.164 214.375C284.614 215.108 284.339 216.133 284.339 217.45V217.775C284.339 219.142 284.672 220.167 285.339 220.85C286.022 221.517 286.981 221.85 288.214 221.85C288.931 221.85 289.597 221.758 290.214 221.575C290.847 221.375 291.447 221.058 292.014 220.625L292.939 222.725C292.339 223.208 291.622 223.583 290.789 223.85C289.956 224.117 289.072 224.25 288.139 224.25ZM301.535 224.25C300.235 224.25 299.093 223.983 298.11 223.45C297.143 222.917 296.393 222.158 295.86 221.175C295.327 220.175 295.06 218.992 295.06 217.625C295.06 216.258 295.327 215.092 295.86 214.125C296.41 213.158 297.168 212.417 298.135 211.9C299.102 211.383 300.235 211.125 301.535 211.125C302.368 211.125 303.177 211.258 303.96 211.525C304.76 211.775 305.41 212.142 305.91 212.625L304.96 214.8C304.51 214.383 304.002 214.075 303.435 213.875C302.885 213.658 302.343 213.55 301.81 213.55C300.693 213.55 299.818 213.9 299.185 214.6C298.568 215.3 298.26 216.317 298.26 217.65C298.26 218.983 298.568 220.008 299.185 220.725C299.818 221.442 300.693 221.8 301.81 221.8C302.327 221.8 302.86 221.7 303.41 221.5C303.977 221.3 304.493 220.992 304.96 220.575L305.91 222.725C305.393 223.208 304.735 223.583 303.935 223.85C303.152 224.117 302.352 224.25 301.535 224.25ZM313.782 224.25C312.282 224.25 311.148 223.858 310.382 223.075C309.615 222.292 309.232 221.117 309.232 219.55V213.725H306.807V211.375H309.232V208.15L312.357 207.35V211.375H315.732V213.725H312.357V219.35C312.357 220.217 312.523 220.825 312.857 221.175C313.19 221.525 313.648 221.7 314.232 221.7C314.548 221.7 314.815 221.675 315.032 221.625C315.265 221.575 315.49 221.508 315.707 221.425V223.9C315.423 224.017 315.107 224.1 314.757 224.15C314.423 224.217 314.098 224.25 313.782 224.25ZM324.965 224V206.375H331.365C333.381 206.375 335.081 206.725 336.465 207.425C337.865 208.108 338.923 209.108 339.64 210.425C340.356 211.725 340.715 213.308 340.715 215.175C340.715 217.025 340.356 218.608 339.64 219.925C338.923 221.242 337.865 222.25 336.465 222.95C335.081 223.65 333.381 224 331.365 224H324.965ZM328.19 221.325H331.165C333.298 221.325 334.881 220.817 335.915 219.8C336.948 218.783 337.465 217.242 337.465 215.175C337.465 213.092 336.948 211.55 335.915 210.55C334.881 209.533 333.298 209.025 331.165 209.025H328.19V221.325ZM349.458 224.25C348.158 224.25 347.033 223.983 346.083 223.45C345.133 222.917 344.391 222.158 343.858 221.175C343.341 220.192 343.083 219.025 343.083 217.675C343.083 216.325 343.341 215.167 343.858 214.2C344.391 213.217 345.133 212.458 346.083 211.925C347.033 211.392 348.158 211.125 349.458 211.125C350.758 211.125 351.883 211.392 352.833 211.925C353.799 212.458 354.541 213.217 355.058 214.2C355.591 215.167 355.858 216.325 355.858 217.675C355.858 219.025 355.591 220.192 355.058 221.175C354.541 222.158 353.799 222.917 352.833 223.45C351.883 223.983 350.758 224.25 349.458 224.25ZM349.458 221.85C350.441 221.85 351.224 221.508 351.808 220.825C352.391 220.125 352.683 219.075 352.683 217.675C352.683 216.275 352.391 215.233 351.808 214.55C351.224 213.867 350.441 213.525 349.458 213.525C348.474 213.525 347.691 213.867 347.108 214.55C346.524 215.233 346.233 216.275 346.233 217.675C346.233 219.075 346.524 220.125 347.108 220.825C347.691 221.508 348.474 221.85 349.458 221.85ZM358.553 224V214.525C358.553 214.008 358.536 213.483 358.503 212.95C358.469 212.417 358.419 211.892 358.353 211.375H361.378L361.628 213.875H361.328C361.728 212.992 362.319 212.317 363.103 211.85C363.886 211.367 364.794 211.125 365.828 211.125C367.311 211.125 368.428 211.542 369.178 212.375C369.928 213.208 370.303 214.508 370.303 216.275V224H367.178V216.425C367.178 215.408 366.978 214.683 366.578 214.25C366.194 213.8 365.611 213.575 364.828 213.575C363.861 213.575 363.094 213.875 362.528 214.475C361.961 215.075 361.678 215.875 361.678 216.875V224H358.553ZM379.716 224.25C377.599 224.25 375.941 223.667 374.741 222.5C373.541 221.333 372.941 219.733 372.941 217.7C372.941 216.383 373.199 215.233 373.716 214.25C374.233 213.267 374.949 212.5 375.866 211.95C376.799 211.4 377.883 211.125 379.116 211.125C380.333 211.125 381.349 211.383 382.166 211.9C382.983 212.417 383.599 213.142 384.016 214.075C384.449 215.008 384.666 216.1 384.666 217.35V218.175H375.466V216.525H382.441L382.016 216.875C382.016 215.708 381.766 214.817 381.266 214.2C380.783 213.583 380.074 213.275 379.141 213.275C378.108 213.275 377.308 213.642 376.741 214.375C376.191 215.108 375.916 216.133 375.916 217.45V217.775C375.916 219.142 376.249 220.167 376.916 220.85C377.599 221.517 378.558 221.85 379.791 221.85C380.508 221.85 381.174 221.758 381.791 221.575C382.424 221.375 383.024 221.058 383.591 220.625L384.516 222.725C383.916 223.208 383.199 223.583 382.366 223.85C381.533 224.117 380.649 224.25 379.716 224.25Z" fill="white"/>
<rect x="115" y="270" width="96" height="65" fill="#FFB342"/>
<path d="M148.515 312.275C146.415 312.275 144.765 311.825 143.565 310.925C142.381 310.025 141.79 308.783 141.79 307.2C141.79 305.95 142.165 304.917 142.915 304.1C143.665 303.283 144.631 302.8 145.815 302.65V303.3C144.748 303.067 143.881 302.558 143.215 301.775C142.565 300.975 142.24 300.017 142.24 298.9C142.24 297.4 142.798 296.225 143.915 295.375C145.048 294.525 146.581 294.1 148.515 294.1C150.465 294.1 151.998 294.525 153.115 295.375C154.231 296.225 154.79 297.4 154.79 298.9C154.79 300.033 154.473 301 153.84 301.8C153.223 302.6 152.398 303.083 151.365 303.25V302.65C152.515 302.817 153.448 303.308 154.165 304.125C154.898 304.942 155.265 305.967 155.265 307.2C155.265 308.783 154.665 310.025 153.465 310.925C152.281 311.825 150.631 312.275 148.515 312.275ZM148.515 309.3C149.581 309.3 150.373 309.1 150.89 308.7C151.423 308.3 151.69 307.708 151.69 306.925C151.69 306.142 151.423 305.558 150.89 305.175C150.373 304.775 149.581 304.575 148.515 304.575C147.465 304.575 146.673 304.775 146.14 305.175C145.606 305.558 145.34 306.142 145.34 306.925C145.34 307.708 145.606 308.3 146.14 308.7C146.673 309.1 147.465 309.3 148.515 309.3ZM148.515 301.6C149.398 301.6 150.073 301.4 150.54 301C151.006 300.583 151.24 300.025 151.24 299.325C151.24 298.625 151.006 298.075 150.54 297.675C150.073 297.275 149.398 297.075 148.515 297.075C147.648 297.075 146.981 297.275 146.515 297.675C146.048 298.075 145.815 298.625 145.815 299.325C145.815 300.025 146.048 300.583 146.515 301C146.981 301.4 147.648 301.6 148.515 301.6ZM163.505 312.275C162.722 312.275 161.947 312.192 161.18 312.025C160.413 311.858 159.697 311.633 159.03 311.35C158.363 311.05 157.805 310.7 157.355 310.3L158.58 307.4C159.33 307.933 160.113 308.342 160.93 308.625C161.747 308.908 162.58 309.05 163.43 309.05C164.397 309.05 165.147 308.825 165.68 308.375C166.23 307.908 166.505 307.275 166.505 306.475C166.505 305.675 166.247 305.033 165.73 304.55C165.213 304.067 164.505 303.825 163.605 303.825C162.972 303.825 162.38 303.942 161.83 304.175C161.297 304.408 160.813 304.767 160.38 305.25H157.88V294.375H169.13V297.55H161.555V302.325H160.655C161.072 301.808 161.622 301.408 162.305 301.125C162.988 300.842 163.755 300.7 164.605 300.7C165.738 300.7 166.722 300.942 167.555 301.425C168.405 301.892 169.063 302.55 169.53 303.4C169.997 304.233 170.23 305.217 170.23 306.35C170.23 307.517 169.955 308.55 169.405 309.45C168.872 310.333 168.097 311.025 167.08 311.525C166.08 312.025 164.888 312.275 163.505 312.275ZM173.52 312V308.8H177.52V297.625H179.345L173.945 300.775V297.125L178.645 294.375H181.42V308.8H185.17V312H173.52Z" fill="#1C2752"/>
<rect x="211.5" y="270.5" width="303" height="64" stroke="white"/>
<path d="M234.95 312V294.375H242.775C244.708 294.375 246.183 294.842 247.2 295.775C248.217 296.708 248.725 297.992 248.725 299.625C248.725 301.242 248.217 302.525 247.2 303.475C246.183 304.425 244.708 304.9 242.775 304.9H238.175V312H234.95ZM238.175 302.35H242.4C243.467 302.35 244.267 302.117 244.8 301.65C245.333 301.167 245.6 300.492 245.6 299.625C245.6 298.758 245.333 298.092 244.8 297.625C244.267 297.142 243.467 296.9 242.4 296.9H238.175V302.35ZM256.84 312.25C254.723 312.25 253.065 311.667 251.865 310.5C250.665 309.333 250.065 307.733 250.065 305.7C250.065 304.383 250.323 303.233 250.84 302.25C251.357 301.267 252.073 300.5 252.99 299.95C253.923 299.4 255.007 299.125 256.24 299.125C257.457 299.125 258.473 299.383 259.29 299.9C260.107 300.417 260.723 301.142 261.14 302.075C261.573 303.008 261.79 304.1 261.79 305.35V306.175H252.59V304.525H259.565L259.14 304.875C259.14 303.708 258.89 302.817 258.39 302.2C257.907 301.583 257.198 301.275 256.265 301.275C255.232 301.275 254.432 301.642 253.865 302.375C253.315 303.108 253.04 304.133 253.04 305.45V305.775C253.04 307.142 253.373 308.167 254.04 308.85C254.723 309.517 255.682 309.85 256.915 309.85C257.632 309.85 258.298 309.758 258.915 309.575C259.548 309.375 260.148 309.058 260.715 308.625L261.64 310.725C261.04 311.208 260.323 311.583 259.49 311.85C258.657 312.117 257.773 312.25 256.84 312.25ZM270.136 312.25C268.836 312.25 267.711 311.983 266.761 311.45C265.811 310.917 265.07 310.158 264.536 309.175C264.02 308.192 263.761 307.025 263.761 305.675C263.761 304.325 264.02 303.167 264.536 302.2C265.07 301.217 265.811 300.458 266.761 299.925C267.711 299.392 268.836 299.125 270.136 299.125C271.436 299.125 272.561 299.392 273.511 299.925C274.478 300.458 275.22 301.217 275.736 302.2C276.27 303.167 276.536 304.325 276.536 305.675C276.536 307.025 276.27 308.192 275.736 309.175C275.22 310.158 274.478 310.917 273.511 311.45C272.561 311.983 271.436 312.25 270.136 312.25ZM270.136 309.85C271.12 309.85 271.903 309.508 272.486 308.825C273.07 308.125 273.361 307.075 273.361 305.675C273.361 304.275 273.07 303.233 272.486 302.55C271.903 301.867 271.12 301.525 270.136 301.525C269.153 301.525 268.37 301.867 267.786 302.55C267.203 303.233 266.911 304.275 266.911 305.675C266.911 307.075 267.203 308.125 267.786 308.825C268.37 309.508 269.153 309.85 270.136 309.85ZM279.231 317.4V302.525C279.231 302.008 279.215 301.483 279.181 300.95C279.148 300.417 279.098 299.892 279.031 299.375H282.056L282.331 302.025H282.056C282.306 301.142 282.831 300.442 283.631 299.925C284.448 299.392 285.39 299.125 286.456 299.125C287.573 299.125 288.548 299.392 289.381 299.925C290.215 300.442 290.865 301.192 291.331 302.175C291.798 303.142 292.031 304.308 292.031 305.675C292.031 307.042 291.798 308.217 291.331 309.2C290.865 310.183 290.215 310.942 289.381 311.475C288.548 311.992 287.573 312.25 286.456 312.25C285.406 312.25 284.481 311.992 283.681 311.475C282.881 310.958 282.348 310.267 282.081 309.4H282.356V317.4H279.231ZM285.581 309.85C286.581 309.85 287.381 309.508 287.981 308.825C288.581 308.125 288.881 307.075 288.881 305.675C288.881 304.275 288.581 303.233 287.981 302.55C287.381 301.867 286.581 301.525 285.581 301.525C284.598 301.525 283.806 301.867 283.206 302.55C282.606 303.233 282.306 304.275 282.306 305.675C282.306 307.075 282.606 308.125 283.206 308.825C283.806 309.508 284.598 309.85 285.581 309.85ZM294.734 312V293.6H297.859V312H294.734ZM307.353 312.25C305.236 312.25 303.578 311.667 302.378 310.5C301.178 309.333 300.578 307.733 300.578 305.7C300.578 304.383 300.836 303.233 301.353 302.25C301.869 301.267 302.586 300.5 303.503 299.95C304.436 299.4 305.519 299.125 306.753 299.125C307.969 299.125 308.986 299.383 309.803 299.9C310.619 300.417 311.236 301.142 311.653 302.075C312.086 303.008 312.303 304.1 312.303 305.35V306.175H303.103V304.525H310.078L309.653 304.875C309.653 303.708 309.403 302.817 308.903 302.2C308.419 301.583 307.711 301.275 306.778 301.275C305.744 301.275 304.944 301.642 304.378 302.375C303.828 303.108 303.553 304.133 303.553 305.45V305.775C303.553 307.142 303.886 308.167 304.553 308.85C305.236 309.517 306.194 309.85 307.428 309.85C308.144 309.85 308.811 309.758 309.428 309.575C310.061 309.375 310.661 309.058 311.228 308.625L312.153 310.725C311.553 311.208 310.836 311.583 310.003 311.85C309.169 312.117 308.286 312.25 307.353 312.25ZM326.959 312L320.734 294.375H324.084L328.884 308.825H327.884L333.059 294.375H335.459L340.259 308.825H339.334L344.359 294.375H347.509L341.234 312H338.559L333.909 298.45H334.459L329.634 312H326.959ZM353.974 312.25C352.674 312.25 351.549 311.983 350.599 311.45C349.649 310.917 348.908 310.158 348.374 309.175C347.858 308.192 347.599 307.025 347.599 305.675C347.599 304.325 347.858 303.167 348.374 302.2C348.908 301.217 349.649 300.458 350.599 299.925C351.549 299.392 352.674 299.125 353.974 299.125C355.274 299.125 356.399 299.392 357.349 299.925C358.316 300.458 359.058 301.217 359.574 302.2C360.108 303.167 360.374 304.325 360.374 305.675C360.374 307.025 360.108 308.192 359.574 309.175C359.058 310.158 358.316 310.917 357.349 311.45C356.399 311.983 355.274 312.25 353.974 312.25ZM353.974 309.85C354.958 309.85 355.741 309.508 356.324 308.825C356.908 308.125 357.199 307.075 357.199 305.675C357.199 304.275 356.908 303.233 356.324 302.55C355.741 301.867 354.958 301.525 353.974 301.525C352.991 301.525 352.208 301.867 351.624 302.55C351.041 303.233 350.749 304.275 350.749 305.675C350.749 307.075 351.041 308.125 351.624 308.825C352.208 309.508 352.991 309.85 353.974 309.85ZM363.044 312V302.6C363.044 302.067 363.027 301.525 362.994 300.975C362.977 300.425 362.936 299.892 362.869 299.375H365.894L366.244 302.825H365.744C365.911 301.992 366.186 301.3 366.569 300.75C366.969 300.2 367.452 299.792 368.019 299.525C368.586 299.258 369.202 299.125 369.869 299.125C370.169 299.125 370.411 299.142 370.594 299.175C370.777 299.192 370.961 299.233 371.144 299.3L371.119 302.05C370.802 301.917 370.527 301.833 370.294 301.8C370.077 301.767 369.802 301.75 369.469 301.75C368.752 301.75 368.144 301.9 367.644 302.2C367.161 302.5 366.794 302.917 366.544 303.45C366.311 303.983 366.194 304.592 366.194 305.275V312H363.044ZM372.884 312V293.6H376.009V304.75H376.059L381.184 299.375H384.959L378.584 306.05L378.609 304.8L385.409 312H381.534L376.059 306.35H376.009V312H372.884ZM386.678 312V299.375H389.803V312H386.678ZM386.503 297V293.95H389.978V297H386.503ZM393.196 312V302.525C393.196 302.008 393.179 301.483 393.146 300.95C393.113 300.417 393.063 299.892 392.996 299.375H396.021L396.271 301.875H395.971C396.371 300.992 396.963 300.317 397.746 299.85C398.529 299.367 399.438 299.125 400.471 299.125C401.954 299.125 403.071 299.542 403.821 300.375C404.571 301.208 404.946 302.508 404.946 304.275V312H401.821V304.425C401.821 303.408 401.621 302.683 401.221 302.25C400.838 301.8 400.254 301.575 399.471 301.575C398.504 301.575 397.738 301.875 397.171 302.475C396.604 303.075 396.321 303.875 396.321 304.875V312H393.196ZM414.11 317.6C412.943 317.6 411.885 317.475 410.935 317.225C410.001 316.975 409.168 316.592 408.435 316.075L409.11 313.825C409.593 314.142 410.093 314.4 410.61 314.6C411.126 314.8 411.66 314.95 412.21 315.05C412.76 315.15 413.318 315.2 413.885 315.2C415.051 315.2 415.918 314.908 416.485 314.325C417.068 313.758 417.36 312.942 417.36 311.875V308.85H417.61C417.343 309.717 416.801 310.408 415.985 310.925C415.185 311.442 414.26 311.7 413.21 311.7C412.076 311.7 411.085 311.45 410.235 310.95C409.401 310.433 408.751 309.7 408.285 308.75C407.818 307.8 407.585 306.683 407.585 305.4C407.585 304.117 407.818 303.008 408.285 302.075C408.751 301.125 409.401 300.4 410.235 299.9C411.085 299.383 412.076 299.125 413.21 299.125C414.276 299.125 415.201 299.383 415.985 299.9C416.785 300.4 417.318 301.083 417.585 301.95L417.36 301.8L417.61 299.375H420.635C420.568 299.892 420.518 300.417 420.485 300.95C420.451 301.483 420.435 302.008 420.435 302.525V311.5C420.435 313.483 419.893 314.992 418.81 316.025C417.743 317.075 416.176 317.6 414.11 317.6ZM414.06 309.3C415.06 309.3 415.851 308.967 416.435 308.3C417.035 307.617 417.335 306.65 417.335 305.4C417.335 304.15 417.035 303.192 416.435 302.525C415.851 301.858 415.06 301.525 414.06 301.525C413.043 301.525 412.235 301.858 411.635 302.525C411.035 303.192 410.735 304.15 410.735 305.4C410.735 306.65 411.035 307.617 411.635 308.3C412.235 308.967 413.043 309.3 414.06 309.3Z" fill="white"/>
<rect x="115" y="358" width="96" height="65" fill="#FFB342"/>
<path d="M142.84 400V397.125L148.44 391.3C149.14 390.567 149.648 389.917 149.965 389.35C150.281 388.783 150.44 388.2 150.44 387.6C150.44 386.85 150.198 386.283 149.715 385.9C149.231 385.517 148.54 385.325 147.64 385.325C146.89 385.325 146.148 385.467 145.415 385.75C144.698 386.017 143.99 386.433 143.29 387L142.065 384.15C142.798 383.517 143.706 383.017 144.79 382.65C145.873 382.283 146.998 382.1 148.165 382.1C150.131 382.1 151.64 382.542 152.69 383.425C153.74 384.292 154.265 385.533 154.265 387.15C154.265 388.233 154.015 389.267 153.515 390.25C153.015 391.233 152.206 392.275 151.09 393.375L146.59 397.8V396.8H154.94V400H142.84ZM164.155 400.275C161.888 400.275 160.138 399.5 158.905 397.95C157.672 396.4 157.055 394.225 157.055 391.425C157.055 389.458 157.372 387.783 158.005 386.4C158.638 385 159.538 383.933 160.705 383.2C161.888 382.467 163.305 382.1 164.955 382.1C165.905 382.1 166.847 382.267 167.78 382.6C168.73 382.917 169.555 383.383 170.255 384L169.005 386.875C168.388 386.358 167.73 385.975 167.03 385.725C166.33 385.458 165.622 385.325 164.905 385.325C163.538 385.325 162.497 385.775 161.78 386.675C161.063 387.575 160.705 388.917 160.705 390.7V392.325H160.38C160.513 391.525 160.788 390.85 161.205 390.3C161.622 389.733 162.155 389.3 162.805 389C163.455 388.7 164.172 388.55 164.955 388.55C165.955 388.55 166.847 388.8 167.63 389.3C168.43 389.783 169.055 390.458 169.505 391.325C169.955 392.175 170.18 393.15 170.18 394.25C170.18 395.417 169.922 396.458 169.405 397.375C168.888 398.275 168.18 398.983 167.28 399.5C166.397 400.017 165.355 400.275 164.155 400.275ZM163.955 397.25C164.488 397.25 164.955 397.133 165.355 396.9C165.755 396.667 166.063 396.333 166.28 395.9C166.497 395.467 166.605 394.967 166.605 394.4C166.605 393.833 166.497 393.342 166.28 392.925C166.063 392.492 165.755 392.158 165.355 391.925C164.955 391.675 164.488 391.55 163.955 391.55C163.422 391.55 162.955 391.675 162.555 391.925C162.155 392.158 161.838 392.492 161.605 392.925C161.388 393.342 161.28 393.833 161.28 394.4C161.28 394.967 161.388 395.467 161.605 395.9C161.838 396.333 162.155 396.667 162.555 396.9C162.955 397.133 163.422 397.25 163.955 397.25ZM178.495 400.275C177.712 400.275 176.937 400.192 176.17 400.025C175.403 399.858 174.687 399.633 174.02 399.35C173.353 399.05 172.795 398.7 172.345 398.3L173.57 395.4C174.32 395.933 175.103 396.342 175.92 396.625C176.737 396.908 177.57 397.05 178.42 397.05C179.387 397.05 180.137 396.825 180.67 396.375C181.22 395.908 181.495 395.275 181.495 394.475C181.495 393.675 181.237 393.033 180.72 392.55C180.203 392.067 179.495 391.825 178.595 391.825C177.962 391.825 177.37 391.942 176.82 392.175C176.287 392.408 175.803 392.767 175.37 393.25H172.87V382.375H184.12V385.55H176.545V390.325H175.645C176.062 389.808 176.612 389.408 177.295 389.125C177.978 388.842 178.745 388.7 179.595 388.7C180.728 388.7 181.712 388.942 182.545 389.425C183.395 389.892 184.053 390.55 184.52 391.4C184.987 392.233 185.22 393.217 185.22 394.35C185.22 395.517 184.945 396.55 184.395 397.45C183.862 398.333 183.087 399.025 182.07 399.525C181.07 400.025 179.878 400.275 178.495 400.275Z" fill="#1C2752"/>
<rect x="211.5" y="358.5" width="303" height="64" stroke="white"/>
<path d="M234.95 400V382.375H242.675C244.592 382.375 246.067 382.783 247.1 383.6C248.133 384.4 248.65 385.517 248.65 386.95C248.65 388.017 248.333 388.917 247.7 389.65C247.067 390.383 246.192 390.875 245.075 391.125V390.75C246.358 390.933 247.35 391.4 248.05 392.15C248.767 392.883 249.125 393.858 249.125 395.075C249.125 396.642 248.583 397.858 247.5 398.725C246.417 399.575 244.908 400 242.975 400H234.95ZM238.05 397.55H242.6C243.683 397.55 244.525 397.35 245.125 396.95C245.725 396.533 246.025 395.858 246.025 394.925C246.025 393.975 245.725 393.3 245.125 392.9C244.525 392.483 243.683 392.275 242.6 392.275H238.05V397.55ZM238.05 389.85H242.125C243.275 389.85 244.125 389.642 244.675 389.225C245.242 388.792 245.525 388.158 245.525 387.325C245.525 386.492 245.242 385.867 244.675 385.45C244.125 385.017 243.275 384.8 242.125 384.8H238.05V389.85ZM256.511 400.25C254.961 400.25 253.802 399.825 253.036 398.975C252.269 398.125 251.886 396.825 251.886 395.075V387.375H255.011V395.05C255.011 395.983 255.202 396.675 255.586 397.125C255.969 397.558 256.552 397.775 257.336 397.775C258.219 397.775 258.936 397.475 259.486 396.875C260.052 396.275 260.336 395.483 260.336 394.5V387.375H263.461V400H260.411V397.425H260.761C260.394 398.325 259.836 399.025 259.086 399.525C258.352 400.008 257.494 400.25 256.511 400.25ZM271.353 400.25C270.27 400.25 269.27 400.125 268.353 399.875C267.453 399.608 266.695 399.242 266.078 398.775L266.953 396.675C267.587 397.108 268.287 397.442 269.053 397.675C269.82 397.908 270.595 398.025 271.378 398.025C272.212 398.025 272.828 397.883 273.228 397.6C273.645 397.317 273.853 396.933 273.853 396.45C273.853 396.067 273.72 395.767 273.453 395.55C273.203 395.317 272.795 395.142 272.228 395.025L269.728 394.55C268.662 394.317 267.845 393.917 267.278 393.35C266.728 392.783 266.453 392.042 266.453 391.125C266.453 390.342 266.662 389.65 267.078 389.05C267.512 388.45 268.12 387.983 268.903 387.65C269.703 387.3 270.637 387.125 271.703 387.125C272.637 387.125 273.512 387.25 274.328 387.5C275.162 387.75 275.862 388.125 276.428 388.625L275.528 390.65C275.012 390.233 274.42 389.908 273.753 389.675C273.087 389.442 272.437 389.325 271.803 389.325C270.937 389.325 270.303 389.483 269.903 389.8C269.503 390.1 269.303 390.492 269.303 390.975C269.303 391.342 269.42 391.65 269.653 391.9C269.903 392.133 270.287 392.308 270.803 392.425L273.303 392.9C274.42 393.117 275.262 393.5 275.828 394.05C276.412 394.583 276.703 395.317 276.703 396.25C276.703 397.083 276.478 397.8 276.028 398.4C275.578 399 274.953 399.458 274.153 399.775C273.353 400.092 272.42 400.25 271.353 400.25ZM279.378 400V387.375H282.503V400H279.378ZM279.203 385V381.95H282.678V385H279.203ZM285.896 400V390.525C285.896 390.008 285.88 389.483 285.846 388.95C285.813 388.417 285.763 387.892 285.696 387.375H288.721L288.971 389.875H288.671C289.071 388.992 289.663 388.317 290.446 387.85C291.23 387.367 292.138 387.125 293.171 387.125C294.655 387.125 295.771 387.542 296.521 388.375C297.271 389.208 297.646 390.508 297.646 392.275V400H294.521V392.425C294.521 391.408 294.321 390.683 293.921 390.25C293.538 389.8 292.955 389.575 292.171 389.575C291.205 389.575 290.438 389.875 289.871 390.475C289.305 391.075 289.021 391.875 289.021 392.875V400H285.896ZM307.06 400.25C304.943 400.25 303.285 399.667 302.085 398.5C300.885 397.333 300.285 395.733 300.285 393.7C300.285 392.383 300.543 391.233 301.06 390.25C301.576 389.267 302.293 388.5 303.21 387.95C304.143 387.4 305.226 387.125 306.46 387.125C307.676 387.125 308.693 387.383 309.51 387.9C310.326 388.417 310.943 389.142 311.36 390.075C311.793 391.008 312.01 392.1 312.01 393.35V394.175H302.81V392.525H309.785L309.36 392.875C309.36 391.708 309.11 390.817 308.61 390.2C308.126 389.583 307.418 389.275 306.485 389.275C305.451 389.275 304.651 389.642 304.085 390.375C303.535 391.108 303.26 392.133 303.26 393.45V393.775C303.26 395.142 303.593 396.167 304.26 396.85C304.943 397.517 305.901 397.85 307.135 397.85C307.851 397.85 308.518 397.758 309.135 397.575C309.768 397.375 310.368 397.058 310.935 396.625L311.86 398.725C311.26 399.208 310.543 399.583 309.71 399.85C308.876 400.117 307.993 400.25 307.06 400.25ZM319.156 400.25C318.073 400.25 317.073 400.125 316.156 399.875C315.256 399.608 314.498 399.242 313.881 398.775L314.756 396.675C315.389 397.108 316.089 397.442 316.856 397.675C317.623 397.908 318.398 398.025 319.181 398.025C320.014 398.025 320.631 397.883 321.031 397.6C321.448 397.317 321.656 396.933 321.656 396.45C321.656 396.067 321.523 395.767 321.256 395.55C321.006 395.317 320.598 395.142 320.031 395.025L317.531 394.55C316.464 394.317 315.648 393.917 315.081 393.35C314.531 392.783 314.256 392.042 314.256 391.125C314.256 390.342 314.464 389.65 314.881 389.05C315.314 388.45 315.923 387.983 316.706 387.65C317.506 387.3 318.439 387.125 319.506 387.125C320.439 387.125 321.314 387.25 322.131 387.5C322.964 387.75 323.664 388.125 324.231 388.625L323.331 390.65C322.814 390.233 322.223 389.908 321.556 389.675C320.889 389.442 320.239 389.325 319.606 389.325C318.739 389.325 318.106 389.483 317.706 389.8C317.306 390.1 317.106 390.492 317.106 390.975C317.106 391.342 317.223 391.65 317.456 391.9C317.706 392.133 318.089 392.308 318.606 392.425L321.106 392.9C322.223 393.117 323.064 393.5 323.631 394.05C324.214 394.583 324.506 395.317 324.506 396.25C324.506 397.083 324.281 397.8 323.831 398.4C323.381 399 322.756 399.458 321.956 399.775C321.156 400.092 320.223 400.25 319.156 400.25ZM331.68 400.25C330.597 400.25 329.597 400.125 328.68 399.875C327.78 399.608 327.022 399.242 326.405 398.775L327.28 396.675C327.914 397.108 328.614 397.442 329.38 397.675C330.147 397.908 330.922 398.025 331.705 398.025C332.539 398.025 333.155 397.883 333.555 397.6C333.972 397.317 334.18 396.933 334.18 396.45C334.18 396.067 334.047 395.767 333.78 395.55C333.53 395.317 333.122 395.142 332.555 395.025L330.055 394.55C328.989 394.317 328.172 393.917 327.605 393.35C327.055 392.783 326.78 392.042 326.78 391.125C326.78 390.342 326.989 389.65 327.405 389.05C327.839 388.45 328.447 387.983 329.23 387.65C330.03 387.3 330.964 387.125 332.03 387.125C332.964 387.125 333.839 387.25 334.655 387.5C335.489 387.75 336.189 388.125 336.755 388.625L335.855 390.65C335.339 390.233 334.747 389.908 334.08 389.675C333.414 389.442 332.764 389.325 332.13 389.325C331.264 389.325 330.63 389.483 330.23 389.8C329.83 390.1 329.63 390.492 329.63 390.975C329.63 391.342 329.747 391.65 329.98 391.9C330.23 392.133 330.614 392.308 331.13 392.425L333.63 392.9C334.747 393.117 335.589 393.5 336.155 394.05C336.739 394.583 337.03 395.317 337.03 396.25C337.03 397.083 336.805 397.8 336.355 398.4C335.905 399 335.28 399.458 334.48 399.775C333.68 400.092 332.747 400.25 331.68 400.25ZM346.815 400V382.375H354.64C356.574 382.375 358.049 382.842 359.065 383.775C360.082 384.708 360.59 385.992 360.59 387.625C360.59 389.242 360.082 390.525 359.065 391.475C358.049 392.425 356.574 392.9 354.64 392.9H350.04V400H346.815ZM350.04 390.35H354.265C355.332 390.35 356.132 390.117 356.665 389.65C357.199 389.167 357.465 388.492 357.465 387.625C357.465 386.758 357.199 386.092 356.665 385.625C356.132 385.142 355.332 384.9 354.265 384.9H350.04V390.35ZM367.505 400.25C366.405 400.25 365.438 399.992 364.605 399.475C363.771 398.942 363.121 398.183 362.655 397.2C362.188 396.217 361.955 395.042 361.955 393.675C361.955 392.308 362.188 391.142 362.655 390.175C363.121 389.192 363.771 388.442 364.605 387.925C365.438 387.392 366.405 387.125 367.505 387.125C368.571 387.125 369.505 387.392 370.305 387.925C371.121 388.442 371.663 389.142 371.93 390.025H371.655L371.93 387.375H374.93C374.88 387.892 374.83 388.417 374.78 388.95C374.746 389.483 374.73 390.008 374.73 390.525V400H371.63L371.605 397.4H371.905C371.638 398.267 371.096 398.958 370.28 399.475C369.463 399.992 368.538 400.25 367.505 400.25ZM368.38 397.85C369.363 397.85 370.155 397.508 370.755 396.825C371.355 396.125 371.655 395.075 371.655 393.675C371.655 392.275 371.355 391.233 370.755 390.55C370.155 389.867 369.363 389.525 368.38 389.525C367.396 389.525 366.605 389.867 366.005 390.55C365.405 391.233 365.105 392.275 365.105 393.675C365.105 395.075 365.396 396.125 365.98 396.825C366.58 397.508 367.38 397.85 368.38 397.85ZM378.108 400V390.6C378.108 390.067 378.091 389.525 378.058 388.975C378.041 388.425 377.999 387.892 377.933 387.375H380.958L381.308 390.825H380.808C380.974 389.992 381.249 389.3 381.633 388.75C382.033 388.2 382.516 387.792 383.083 387.525C383.649 387.258 384.266 387.125 384.933 387.125C385.233 387.125 385.474 387.142 385.658 387.175C385.841 387.192 386.024 387.233 386.208 387.3L386.183 390.05C385.866 389.917 385.591 389.833 385.358 389.8C385.141 389.767 384.866 389.75 384.533 389.75C383.816 389.75 383.208 389.9 382.708 390.2C382.224 390.5 381.858 390.917 381.608 391.45C381.374 391.983 381.258 392.592 381.258 393.275V400H378.108ZM394.055 400.25C392.555 400.25 391.422 399.858 390.655 399.075C389.888 398.292 389.505 397.117 389.505 395.55V389.725H387.08V387.375H389.505V384.15L392.63 383.35V387.375H396.005V389.725H392.63V395.35C392.63 396.217 392.797 396.825 393.13 397.175C393.463 397.525 393.922 397.7 394.505 397.7C394.822 397.7 395.088 397.675 395.305 397.625C395.538 397.575 395.763 397.508 395.98 397.425V399.9C395.697 400.017 395.38 400.1 395.03 400.15C394.697 400.217 394.372 400.25 394.055 400.25ZM398.128 400V390.525C398.128 390.008 398.111 389.483 398.078 388.95C398.044 388.417 397.994 387.892 397.928 387.375H400.953L401.203 389.875H400.903C401.303 388.992 401.894 388.317 402.678 387.85C403.461 387.367 404.369 387.125 405.403 387.125C406.886 387.125 408.003 387.542 408.753 388.375C409.503 389.208 409.878 390.508 409.878 392.275V400H406.753V392.425C406.753 391.408 406.553 390.683 406.153 390.25C405.769 389.8 405.186 389.575 404.403 389.575C403.436 389.575 402.669 389.875 402.103 390.475C401.536 391.075 401.253 391.875 401.253 392.875V400H398.128ZM419.291 400.25C417.175 400.25 415.516 399.667 414.316 398.5C413.116 397.333 412.516 395.733 412.516 393.7C412.516 392.383 412.775 391.233 413.291 390.25C413.808 389.267 414.525 388.5 415.441 387.95C416.375 387.4 417.458 387.125 418.691 387.125C419.908 387.125 420.925 387.383 421.741 387.9C422.558 388.417 423.175 389.142 423.591 390.075C424.025 391.008 424.241 392.1 424.241 393.35V394.175H415.041V392.525H422.016L421.591 392.875C421.591 391.708 421.341 390.817 420.841 390.2C420.358 389.583 419.65 389.275 418.716 389.275C417.683 389.275 416.883 389.642 416.316 390.375C415.766 391.108 415.491 392.133 415.491 393.45V393.775C415.491 395.142 415.825 396.167 416.491 396.85C417.175 397.517 418.133 397.85 419.366 397.85C420.083 397.85 420.75 397.758 421.366 397.575C422 397.375 422.6 397.058 423.166 396.625L424.091 398.725C423.491 399.208 422.775 399.583 421.941 399.85C421.108 400.117 420.225 400.25 419.291 400.25ZM426.863 400V390.6C426.863 390.067 426.846 389.525 426.813 388.975C426.796 388.425 426.754 387.892 426.688 387.375H429.713L430.063 390.825H429.563C429.729 389.992 430.004 389.3 430.388 388.75C430.788 388.2 431.271 387.792 431.838 387.525C432.404 387.258 433.021 387.125 433.688 387.125C433.988 387.125 434.229 387.142 434.413 387.175C434.596 387.192 434.779 387.233 434.963 387.3L434.938 390.05C434.621 389.917 434.346 389.833 434.113 389.8C433.896 389.767 433.621 389.75 433.288 389.75C432.571 389.75 431.963 389.9 431.463 390.2C430.979 390.5 430.613 390.917 430.363 391.45C430.129 391.983 430.013 392.592 430.013 393.275V400H426.863Z" fill="white"/>
<rect x="115" y="446" width="96" height="65" fill="#FFB342"/>
<path d="M140.52 488.275C138.42 488.275 136.77 487.825 135.57 486.925C134.386 486.025 133.795 484.783 133.795 483.2C133.795 481.95 134.17 480.917 134.92 480.1C135.67 479.283 136.636 478.8 137.82 478.65V479.3C136.753 479.067 135.886 478.558 135.22 477.775C134.57 476.975 134.245 476.017 134.245 474.9C134.245 473.4 134.803 472.225 135.92 471.375C137.053 470.525 138.586 470.1 140.52 470.1C142.47 470.1 144.003 470.525 145.12 471.375C146.236 472.225 146.795 473.4 146.795 474.9C146.795 476.033 146.478 477 145.845 477.8C145.228 478.6 144.403 479.083 143.37 479.25V478.65C144.52 478.817 145.453 479.308 146.17 480.125C146.903 480.942 147.27 481.967 147.27 483.2C147.27 484.783 146.67 486.025 145.47 486.925C144.286 487.825 142.636 488.275 140.52 488.275ZM140.52 485.3C141.586 485.3 142.378 485.1 142.895 484.7C143.428 484.3 143.695 483.708 143.695 482.925C143.695 482.142 143.428 481.558 142.895 481.175C142.378 480.775 141.586 480.575 140.52 480.575C139.47 480.575 138.678 480.775 138.145 481.175C137.611 481.558 137.345 482.142 137.345 482.925C137.345 483.708 137.611 484.3 138.145 484.7C138.678 485.1 139.47 485.3 140.52 485.3ZM140.52 477.6C141.403 477.6 142.078 477.4 142.545 477C143.011 476.583 143.245 476.025 143.245 475.325C143.245 474.625 143.011 474.075 142.545 473.675C142.078 473.275 141.403 473.075 140.52 473.075C139.653 473.075 138.986 473.275 138.52 473.675C138.053 474.075 137.82 474.625 137.82 475.325C137.82 476.025 138.053 476.583 138.52 477C138.986 477.4 139.653 477.6 140.52 477.6ZM155.51 488.275C154.726 488.275 153.951 488.192 153.185 488.025C152.418 487.858 151.701 487.633 151.035 487.35C150.368 487.05 149.81 486.7 149.36 486.3L150.585 483.4C151.335 483.933 152.118 484.342 152.935 484.625C153.751 484.908 154.585 485.05 155.435 485.05C156.401 485.05 157.151 484.825 157.685 484.375C158.235 483.908 158.51 483.275 158.51 482.475C158.51 481.675 158.251 481.033 157.735 480.55C157.218 480.067 156.51 479.825 155.61 479.825C154.976 479.825 154.385 479.942 153.835 480.175C153.301 480.408 152.818 480.767 152.385 481.25H149.885V470.375H161.135V473.55H153.56V478.325H152.66C153.076 477.808 153.626 477.408 154.31 477.125C154.993 476.842 155.76 476.7 156.61 476.7C157.743 476.7 158.726 476.942 159.56 477.425C160.41 477.892 161.068 478.55 161.535 479.4C162.001 480.233 162.235 481.217 162.235 482.35C162.235 483.517 161.96 484.55 161.41 485.45C160.876 486.333 160.101 487.025 159.085 487.525C158.085 488.025 156.893 488.275 155.51 488.275ZM171.45 488V484.775H163.9V482.075L172.05 470.375H175.2V481.85H177.6V484.775H175.2V488H171.45ZM171.45 481.85V474.975H172.075L166.7 482.75V481.85H171.45ZM184.165 487.025V482.125H179.365V479.525H184.165V474.775H186.84V479.525H191.615V482.125H186.84V487.025H184.165Z" fill="#1C2752"/>
<rect x="211.5" y="446.5" width="303" height="64" stroke="white"/>
<path d="M234.95 488V470.375H238.175V477.725H247.2V470.375H250.425V488H247.2V480.4H238.175V488H234.95ZM258.935 488.25C257.835 488.25 256.869 487.992 256.035 487.475C255.202 486.942 254.552 486.183 254.085 485.2C253.619 484.217 253.385 483.042 253.385 481.675C253.385 480.308 253.619 479.142 254.085 478.175C254.552 477.192 255.202 476.442 256.035 475.925C256.869 475.392 257.835 475.125 258.935 475.125C260.002 475.125 260.935 475.392 261.735 475.925C262.552 476.442 263.094 477.142 263.36 478.025H263.085L263.36 475.375H266.36C266.31 475.892 266.26 476.417 266.21 476.95C266.177 477.483 266.16 478.008 266.16 478.525V488H263.06L263.035 485.4H263.335C263.069 486.267 262.527 486.958 261.71 487.475C260.894 487.992 259.969 488.25 258.935 488.25ZM259.81 485.85C260.794 485.85 261.585 485.508 262.185 484.825C262.785 484.125 263.085 483.075 263.085 481.675C263.085 480.275 262.785 479.233 262.185 478.55C261.585 477.867 260.794 477.525 259.81 477.525C258.827 477.525 258.035 477.867 257.435 478.55C256.835 479.233 256.535 480.275 256.535 481.675C256.535 483.075 256.827 484.125 257.41 484.825C258.01 485.508 258.81 485.85 259.81 485.85ZM269.563 493.4V478.525C269.563 478.008 269.547 477.483 269.513 476.95C269.48 476.417 269.43 475.892 269.363 475.375H272.388L272.663 478.025H272.388C272.638 477.142 273.163 476.442 273.963 475.925C274.78 475.392 275.722 475.125 276.788 475.125C277.905 475.125 278.88 475.392 279.713 475.925C280.547 476.442 281.197 477.192 281.663 478.175C282.13 479.142 282.363 480.308 282.363 481.675C282.363 483.042 282.13 484.217 281.663 485.2C281.197 486.183 280.547 486.942 279.713 487.475C278.88 487.992 277.905 488.25 276.788 488.25C275.738 488.25 274.813 487.992 274.013 487.475C273.213 486.958 272.68 486.267 272.413 485.4H272.688V493.4H269.563ZM275.913 485.85C276.913 485.85 277.713 485.508 278.313 484.825C278.913 484.125 279.213 483.075 279.213 481.675C279.213 480.275 278.913 479.233 278.313 478.55C277.713 477.867 276.913 477.525 275.913 477.525C274.93 477.525 274.138 477.867 273.538 478.55C272.938 479.233 272.638 480.275 272.638 481.675C272.638 483.075 272.938 484.125 273.538 484.825C274.138 485.508 274.93 485.85 275.913 485.85ZM285.066 493.4V478.525C285.066 478.008 285.05 477.483 285.016 476.95C284.983 476.417 284.933 475.892 284.866 475.375H287.891L288.166 478.025H287.891C288.141 477.142 288.666 476.442 289.466 475.925C290.283 475.392 291.225 475.125 292.291 475.125C293.408 475.125 294.383 475.392 295.216 475.925C296.05 476.442 296.7 477.192 297.166 478.175C297.633 479.142 297.866 480.308 297.866 481.675C297.866 483.042 297.633 484.217 297.166 485.2C296.7 486.183 296.05 486.942 295.216 487.475C294.383 487.992 293.408 488.25 292.291 488.25C291.241 488.25 290.316 487.992 289.516 487.475C288.716 486.958 288.183 486.267 287.916 485.4H288.191V493.4H285.066ZM291.416 485.85C292.416 485.85 293.216 485.508 293.816 484.825C294.416 484.125 294.716 483.075 294.716 481.675C294.716 480.275 294.416 479.233 293.816 478.55C293.216 477.867 292.416 477.525 291.416 477.525C290.433 477.525 289.641 477.867 289.041 478.55C288.441 479.233 288.141 480.275 288.141 481.675C288.141 483.075 288.441 484.125 289.041 484.825C289.641 485.508 290.433 485.85 291.416 485.85ZM300.075 493.675L299.35 491.2C300.133 491.033 300.792 490.842 301.325 490.625C301.858 490.408 302.3 490.125 302.65 489.775C303 489.425 303.292 488.975 303.525 488.425L304.15 486.95L304.075 488.175L298.575 475.375H301.9L305.85 485.225H305.125L309.1 475.375H312.25L306.5 488.7C306.117 489.6 305.7 490.342 305.25 490.925C304.8 491.525 304.317 492 303.8 492.35C303.283 492.717 302.717 493 302.1 493.2C301.483 493.4 300.808 493.558 300.075 493.675ZM329.21 488.25C327.376 488.25 325.801 487.883 324.485 487.15C323.185 486.4 322.185 485.35 321.485 484C320.785 482.633 320.435 481.025 320.435 479.175C320.435 477.325 320.785 475.725 321.485 474.375C322.185 473.025 323.185 471.983 324.485 471.25C325.801 470.5 327.376 470.125 329.21 470.125C330.443 470.125 331.551 470.3 332.535 470.65C333.535 471 334.393 471.517 335.11 472.2L334.06 474.75C333.276 474.117 332.518 473.667 331.785 473.4C331.068 473.117 330.243 472.975 329.31 472.975C327.526 472.975 326.16 473.517 325.21 474.6C324.276 475.667 323.81 477.192 323.81 479.175C323.81 481.158 324.276 482.692 325.21 483.775C326.16 484.858 327.526 485.4 329.31 485.4C330.243 485.4 331.068 485.267 331.785 485C332.518 484.717 333.276 484.25 334.06 483.6L335.11 486.15C334.393 486.817 333.535 487.333 332.535 487.7C331.551 488.067 330.443 488.25 329.21 488.25ZM342.106 488.25C340.556 488.25 339.398 487.825 338.631 486.975C337.865 486.125 337.481 484.825 337.481 483.075V475.375H340.606V483.05C340.606 483.983 340.798 484.675 341.181 485.125C341.565 485.558 342.148 485.775 342.931 485.775C343.815 485.775 344.531 485.475 345.081 484.875C345.648 484.275 345.931 483.483 345.931 482.5V475.375H349.056V488H346.006V485.425H346.356C345.99 486.325 345.431 487.025 344.681 487.525C343.948 488.008 343.09 488.25 342.106 488.25ZM356.949 488.25C355.866 488.25 354.866 488.125 353.949 487.875C353.049 487.608 352.291 487.242 351.674 486.775L352.549 484.675C353.182 485.108 353.882 485.442 354.649 485.675C355.416 485.908 356.191 486.025 356.974 486.025C357.807 486.025 358.424 485.883 358.824 485.6C359.241 485.317 359.449 484.933 359.449 484.45C359.449 484.067 359.316 483.767 359.049 483.55C358.799 483.317 358.391 483.142 357.824 483.025L355.324 482.55C354.257 482.317 353.441 481.917 352.874 481.35C352.324 480.783 352.049 480.042 352.049 479.125C352.049 478.342 352.257 477.65 352.674 477.05C353.107 476.45 353.716 475.983 354.499 475.65C355.299 475.3 356.232 475.125 357.299 475.125C358.232 475.125 359.107 475.25 359.924 475.5C360.757 475.75 361.457 476.125 362.024 476.625L361.124 478.65C360.607 478.233 360.016 477.908 359.349 477.675C358.682 477.442 358.032 477.325 357.399 477.325C356.532 477.325 355.899 477.483 355.499 477.8C355.099 478.1 354.899 478.492 354.899 478.975C354.899 479.342 355.016 479.65 355.249 479.9C355.499 480.133 355.882 480.308 356.399 480.425L358.899 480.9C360.016 481.117 360.857 481.5 361.424 482.05C362.007 482.583 362.299 483.317 362.299 484.25C362.299 485.083 362.074 485.8 361.624 486.4C361.174 487 360.549 487.458 359.749 487.775C358.949 488.092 358.016 488.25 356.949 488.25ZM370.251 488.25C368.751 488.25 367.618 487.858 366.851 487.075C366.085 486.292 365.701 485.117 365.701 483.55V477.725H363.276V475.375H365.701V472.15L368.826 471.35V475.375H372.201V477.725H368.826V483.35C368.826 484.217 368.993 484.825 369.326 485.175C369.66 485.525 370.118 485.7 370.701 485.7C371.018 485.7 371.285 485.675 371.501 485.625C371.735 485.575 371.96 485.508 372.176 485.425V487.9C371.893 488.017 371.576 488.1 371.226 488.15C370.893 488.217 370.568 488.25 370.251 488.25ZM379.902 488.25C378.602 488.25 377.477 487.983 376.527 487.45C375.577 486.917 374.835 486.158 374.302 485.175C373.785 484.192 373.527 483.025 373.527 481.675C373.527 480.325 373.785 479.167 374.302 478.2C374.835 477.217 375.577 476.458 376.527 475.925C377.477 475.392 378.602 475.125 379.902 475.125C381.202 475.125 382.327 475.392 383.277 475.925C384.244 476.458 384.985 477.217 385.502 478.2C386.035 479.167 386.302 480.325 386.302 481.675C386.302 483.025 386.035 484.192 385.502 485.175C384.985 486.158 384.244 486.917 383.277 487.45C382.327 487.983 381.202 488.25 379.902 488.25ZM379.902 485.85C380.885 485.85 381.669 485.508 382.252 484.825C382.835 484.125 383.127 483.075 383.127 481.675C383.127 480.275 382.835 479.233 382.252 478.55C381.669 477.867 380.885 477.525 379.902 477.525C378.919 477.525 378.135 477.867 377.552 478.55C376.969 479.233 376.677 480.275 376.677 481.675C376.677 483.075 376.969 484.125 377.552 484.825C378.135 485.508 378.919 485.85 379.902 485.85ZM388.997 488V478.525C388.997 478.008 388.98 477.483 388.947 476.95C388.914 476.417 388.864 475.892 388.797 475.375H391.822L392.072 477.875H391.772C392.122 477.008 392.655 476.333 393.372 475.85C394.105 475.367 394.972 475.125 395.972 475.125C396.972 475.125 397.797 475.367 398.447 475.85C399.114 476.317 399.58 477.05 399.847 478.05H399.447C399.797 477.15 400.372 476.442 401.172 475.925C401.972 475.392 402.889 475.125 403.922 475.125C405.339 475.125 406.397 475.542 407.097 476.375C407.797 477.208 408.147 478.508 408.147 480.275V488H405.022V480.4C405.022 479.4 404.855 478.683 404.522 478.25C404.189 477.8 403.655 477.575 402.922 477.575C402.055 477.575 401.372 477.883 400.872 478.5C400.372 479.1 400.122 479.917 400.122 480.95V488H396.997V480.4C396.997 479.4 396.83 478.683 396.497 478.25C396.164 477.8 395.63 477.575 394.897 477.575C394.03 477.575 393.347 477.883 392.847 478.5C392.364 479.1 392.122 479.917 392.122 480.95V488H388.997ZM417.582 488.25C415.466 488.25 413.807 487.667 412.607 486.5C411.407 485.333 410.807 483.733 410.807 481.7C410.807 480.383 411.066 479.233 411.582 478.25C412.099 477.267 412.816 476.5 413.732 475.95C414.666 475.4 415.749 475.125 416.982 475.125C418.199 475.125 419.216 475.383 420.032 475.9C420.849 476.417 421.466 477.142 421.882 478.075C422.316 479.008 422.532 480.1 422.532 481.35V482.175H413.332V480.525H420.307L419.882 480.875C419.882 479.708 419.632 478.817 419.132 478.2C418.649 477.583 417.941 477.275 417.007 477.275C415.974 477.275 415.174 477.642 414.607 478.375C414.057 479.108 413.782 480.133 413.782 481.45V481.775C413.782 483.142 414.116 484.167 414.782 484.85C415.466 485.517 416.424 485.85 417.657 485.85C418.374 485.85 419.041 485.758 419.657 485.575C420.291 485.375 420.891 485.058 421.457 484.625L422.382 486.725C421.782 487.208 421.066 487.583 420.232 487.85C419.399 488.117 418.516 488.25 417.582 488.25ZM425.154 488V478.6C425.154 478.067 425.137 477.525 425.104 476.975C425.087 476.425 425.045 475.892 424.979 475.375H428.004L428.354 478.825H427.854C428.02 477.992 428.295 477.3 428.679 476.75C429.079 476.2 429.562 475.792 430.129 475.525C430.695 475.258 431.312 475.125 431.979 475.125C432.279 475.125 432.52 475.142 432.704 475.175C432.887 475.192 433.07 475.233 433.254 475.3L433.229 478.05C432.912 477.917 432.637 477.833 432.404 477.8C432.187 477.767 431.912 477.75 431.579 477.75C430.862 477.75 430.254 477.9 429.754 478.2C429.27 478.5 428.904 478.917 428.654 479.45C428.42 479.983 428.304 480.592 428.304 481.275V488H425.154ZM439.371 488.25C438.288 488.25 437.288 488.125 436.371 487.875C435.471 487.608 434.713 487.242 434.096 486.775L434.971 484.675C435.604 485.108 436.304 485.442 437.071 485.675C437.838 485.908 438.613 486.025 439.396 486.025C440.229 486.025 440.846 485.883 441.246 485.6C441.663 485.317 441.871 484.933 441.871 484.45C441.871 484.067 441.738 483.767 441.471 483.55C441.221 483.317 440.813 483.142 440.246 483.025L437.746 482.55C436.679 482.317 435.863 481.917 435.296 481.35C434.746 480.783 434.471 480.042 434.471 479.125C434.471 478.342 434.679 477.65 435.096 477.05C435.529 476.45 436.138 475.983 436.921 475.65C437.721 475.3 438.654 475.125 439.721 475.125C440.654 475.125 441.529 475.25 442.346 475.5C443.179 475.75 443.879 476.125 444.446 476.625L443.546 478.65C443.029 478.233 442.438 477.908 441.771 477.675C441.104 477.442 440.454 477.325 439.821 477.325C438.954 477.325 438.321 477.483 437.921 477.8C437.521 478.1 437.321 478.492 437.321 478.975C437.321 479.342 437.438 479.65 437.671 479.9C437.921 480.133 438.304 480.308 438.821 480.425L441.321 480.9C442.438 481.117 443.279 481.5 443.846 482.05C444.429 482.583 444.721 483.317 444.721 484.25C444.721 485.083 444.496 485.8 444.046 486.4C443.596 487 442.971 487.458 442.171 487.775C441.371 488.092 440.438 488.25 439.371 488.25Z" fill="white"/>
</g>
<defs>
<filter id="filter0_b_248_439" x="-25" y="-25" width="680" height="743" filterUnits="userSpaceOnUse" color-interpolation-filters="sRGB">
<feFlood flood-opacity="0" result="BackgroundImageFix"/>
<feGaussianBlur in="BackgroundImageFix" stdDeviation="12.5"/>
<feComposite in2="SourceAlpha" operator="in" result="effect1_backgroundBlur_248_439"/>
<feBlend mode="normal" in="SourceGraphic" in2="effect1_backgroundBlur_248_439" result="shape"/>
</filter>
</defs>
</svg>
